<?xml version="1.0" encoding="UTF-8"?>
<svg id="Capa_2" data-name="Capa 2" xmlns="http://www.w3.org/2000/svg" xmlns:xlink="http://www.w3.org/1999/xlink" viewBox="0 0 119.08 68.62">
  <defs>
    <style>
      .cls-1 {
        fill: url(#Degradado_sin_nombre_13);
      }

      .cls-2 {
        font-family: Comfortaa-Bold, Comfortaa;
        font-size: 8.65px;
        font-weight: 700;
      }

      .cls-2, .cls-3 {
        fill: #1b3a34;
      }

      .cls-4 {
        letter-spacing: -.07em;
      }

      .cls-3 {
        font-family: AcariSans-ExtraLight, 'Acari Sans VF';
        font-size: 7.93px;
        font-variation-settings: 'wght' 200;
        font-weight: 200;
      }

      .cls-5 {
        letter-spacing: -.02em;
      }

      .cls-6 {
        fill: url(#Degradado_sin_nombre_172);
      }
    </style>
    <linearGradient id="Degradado_sin_nombre_172" data-name="Degradado sin nombre 172" x1="59.57" y1="36.47" x2="59.57" y2="13.24" gradientUnits="userSpaceOnUse">
      <stop offset="0" stop-color="#693264"/>
      <stop offset=".12" stop-color="#73376e"/>
      <stop offset=".44" stop-color="#8b4284"/>
      <stop offset=".74" stop-color="#994992"/>
      <stop offset="1" stop-color="#9e4c97"/>
    </linearGradient>
    <linearGradient id="Degradado_sin_nombre_13" data-name="Degradado sin nombre 13" x1="59.54" y1="10.94" x2="59.47" y2=".67" gradientUnits="userSpaceOnUse">
      <stop offset=".04" stop-color="#34716b"/>
      <stop offset=".15" stop-color="#2a766e"/>
      <stop offset=".46" stop-color="#128478"/>
      <stop offset=".75" stop-color="#048d7e"/>
      <stop offset="1" stop-color="#009080"/>
    </linearGradient>
  </defs>
  <g id="Capa_10" data-name="Capa 10">
    <g>
      <g>
        <path class="cls-6" d="m64.02,25.11c.09.03.21.04.31.03,1.75-.17,5.14-1.98,6.03-3.52.69-1.2,1.1-2.28.62-3.84-1.01-3.23-4.02-4.78-6.66-5.51-4.6-1.26-9.62-.17-13.23,2.98-3.63,3.17-4.14,8.46-1.29,12.33,1.96,2.67,5.05,4.33,8.24,5.24,1.17.33,2.37.58,3.5,1.01s2.23,1.09,2.94,2.08.98,2.35.46,3.45c-.89,1.87-3.62,2.36-5.46,1.92-.19-.05-.39-.11-.55-.22s-.28-.31-.27-.51c.02-.25.23-.44.46-.54s.48-.13.71-.23c.56-.23.93-.83.96-1.44s-.27-1.21-.72-1.61c-1.55-1.39-4.35-.66-5.67.72-.6.62-1.05,1.53-.98,2.41.08.95.51,1.86,1.15,2.57.8.89,1.9,1.47,3.05,1.76,1.6.41,3.33.29,4.85-.33,1.66-.68,3.21-2,3.96-3.65.54-1.19.67-2.55.37-3.82-.34-1.41-1.19-2.49-2.29-3.4-2.17-1.81-5.76-2.61-8.15-6.41-.79-1.26-1.05-2.77-.45-4.16.5-1.16,1.47-2.09,2.55-2.71,2.16-1.23,5.01-1.45,6.97.29.49.43.87,1.18.78,1.8-.29,1.95-1.79,2.49-2.27,2.86-.08.06-.12.18-.1.28.02.09.08.14.16.17Z"/>
        <path class="cls-1" d="m45.5,18.02c2.19-.15,3.92-1.33,4.54-3.57s-.14-4.69-1.38-6c-.87-.92-2.71-1.61-3.84-.33-.81.92-.73,2.22.17,3.47.78,1.09,2.73,2.14,4.69,2.04,1.26-.07,3.81-1.29,4.41-3.75.57-2.32-.76-5.47-2.77-6.06-1.22-.36-2.48.73-2.46,2.03.02,1.41.79,2.79,1.71,3.81.59.66,1.35,1.17,2.17,1.5s1.35.26,2.17.07c1.52-.35,3.01-1.22,3.81-2.57,1.32-2.24.75-5.56-.42-6.64-1.62-1.48-3.17-.37-3.69.5-1.29,2.13.27,7.01,4.52,7.59,3.01.41,5.68-1.71,6.45-5.09.47-2.05-.02-3.91-1.35-4.73-.86-.53-2.21-.31-2.92.41s-1.24,1.77-1.34,3.67c-.12,2.31.4,3.57,1.2,4.95s3.98,2.89,6.8,2.53c2.67-.34,4.9-2.52,5.86-5.04.44-1.15.63-2.43.32-3.62s-1.18-2.27-2.36-2.63c-1.15-.35-2.43.02-3.37.76s-1.56,1.83-1.96,2.96c-1.12,3.12-.78,6.45,1.85,8.68,1.59,1.35,4.54,1.83,6.52,1.08-1.71.31-3.6.28-5.63-1.1s-2.39-4.01-2.23-5.9c.07-.81.47-2.23,1-3.01.67-.99,1.41-1.26,1.83-.92.6.49.64,1.52.17,2.82-.51,1.4-1.59,2.55-2.86,3.16-2.12,1.02-4.39.16-5.52-1.36-.64-.86-.87-2.4-.72-3.53.23-1.64,1.91-1.9,1.96-.27.05,1.53-.78,3.07-1.35,3.62-1.22,1.19-2.58,1.38-3.89,1.04-1.49-.39-2.34-2.19-2.44-3.61-.03-.49.08-1.08.54-1.24.29-.1.62.02.83.24s.33.51.41.81c.44,1.66-.19,3.89-1.72,4.83-.68.42-1.74.62-2.52.5-1.69-.26-2.85-2.51-2.86-3.33,0-.7.79-.7,1.3.45,1.09,2.46.56,4.4-.26,5.1-1.5,1.28-4.45.27-5.5-1.75-.46-.88.29-.9,1.28-.11.93.74,1.91,2.73,1.62,4.62-.14.95-.62,2.23-2.75,2.94Z"/>
      </g>
      <text class="cls-2" transform="translate(0 57.71)"><tspan x="0" y="0">SANDRA CARRASCO LEI</tspan><tspan class="cls-4" x="107.24" y="0">V</tspan><tspan x="113.01" y="0">A</tspan></text>
      <text class="cls-3" transform="translate(14.52 66.58)"><tspan x="0" y="0">Podología Clínica Integ</tspan><tspan class="cls-5" x="80.91" y="0">r</tspan><tspan x="83.96" y="0">al</tspan></text>
    </g>
  </g>
</svg>